<?xml version="1.0" standalone="no"?>
<!DOCTYPE svg PUBLIC "-//W3C//DTD SVG 20010904//EN"
 "http://www.w3.org/TR/2001/REC-SVG-20010904/DTD/svg10.dtd">
<svg version="1.0" xmlns="http://www.w3.org/2000/svg"
 width="500.000000pt" height="500.000000pt" viewBox="0 0 500.000000 500.000000"
 preserveAspectRatio="xMidYMid meet">

<g transform="translate(0.000000,500.000000) scale(0.100000,-0.100000)"
fill="#000000" stroke="none">
<path d="M2203 4505 c-32 -22 -30 -82 4 -176 23 -64 27 -90 27 -194 1 -101 -3
-129 -22 -180 -46 -123 -122 -213 -351 -412 -200 -175 -315 -286 -407 -396
-183 -217 -304 -443 -367 -683 -103 -393 -31 -838 193 -1175 298 -452 847
-718 1383 -670 642 57 1177 508 1332 1124 37 146 49 270 42 437 -9 241 -54
424 -166 678 -105 239 -364 583 -455 606 -15 4 -35 2 -46 -4 -19 -10 -40 -66
-40 -108 0 -32 -30 -176 -39 -184 -4 -5 -15 36 -25 90 -40 214 -117 428 -214
595 -163 284 -446 546 -678 630 -99 35 -144 41 -171 22z m322 -296 c82 -64
236 -224 282 -294 21 -32 51 -76 66 -99 98 -144 178 -363 223 -611 14 -77 35
-171 45 -208 24 -81 45 -95 111 -72 23 7 45 12 50 9 5 -3 7 -2 6 3 -2 4 18 28
44 52 59 54 84 93 101 159 l13 50 70 -101 c39 -56 82 -122 96 -147 91 -165
111 -206 146 -295 51 -131 92 -310 92 -400 -1 -29 -1 -30 -18 -10 -12 14 -29
20 -59 20 -24 0 -43 3 -43 8 0 4 12 7 28 7 21 0 24 2 12 10 -8 5 -25 7 -36 4
-16 -4 -32 5 -60 32 -22 20 -38 42 -37 48 1 6 -12 21 -28 34 l-29 24 -1 -24 0
-23 -11 22 c-11 24 -28 31 -28 12 0 -5 -4 -7 -10 -4 -18 11 -11 25 13 25 21 1
21 1 2 12 -11 6 -23 15 -26 20 -3 5 -12 8 -19 6 -8 -2 -14 3 -15 11 0 28 -23
21 -30 -9 -7 -33 -26 -36 -31 -5 -1 10 -8 21 -15 25 -6 4 -8 13 -5 19 5 7 -2
11 -18 11 -23 0 -36 5 -114 44 -19 9 -46 17 -60 17 -18 1 -21 3 -9 6 16 4 15
7 -9 29 -14 14 -29 22 -33 18 -3 -4 0 -9 7 -11 17 -7 15 -23 -4 -23 -23 0 -45
26 -38 44 4 10 1 16 -9 16 -8 0 -17 -6 -20 -12 -2 -8 -23 6 -53 35 -39 39 -54
48 -76 45 -16 -3 -28 -3 -28 -2 0 2 4 14 9 27 12 31 5 38 -26 26 -22 -8 -26
-6 -36 21 -6 16 -16 29 -22 29 -32 -4 -44 5 -59 42 l-17 42 -46 -6 c-25 -3
-40 -1 -33 3 7 4 10 12 6 18 -3 6 -2 13 4 17 19 12 10 22 -30 34 -40 12 -51
25 -27 34 6 2 9 7 5 11 -3 4 -16 3 -27 -4 -19 -10 -21 -8 -21 19 0 23 -5 31
-22 34 -23 4 -23 4 2 15 14 6 20 11 13 11 -6 1 -24 6 -40 13 -15 6 -34 10 -40
9 -7 -1 -13 5 -13 14 0 8 -9 15 -20 15 -14 0 -18 5 -13 16 8 22 -21 44 -48 37
-15 -4 -22 0 -26 16 -3 11 -12 21 -19 21 -9 0 -14 12 -14 35 0 37 -25 51 -32
18 -3 -16 -4 -16 -20 0 -9 9 -24 17 -32 17 -9 0 -16 5 -16 10 0 6 -8 10 -17
10 -17 1 -17 1 0 14 22 17 22 26 -3 26 -11 0 -20 5 -20 10 0 6 7 10 15 10 8 0
15 6 15 14 0 16 -36 32 -59 27 -21 -4 -101 20 -101 30 0 5 4 9 9 9 12 0 23 29
15 41 -4 6 -10 6 -18 0 -7 -6 -17 -7 -21 -3 -5 4 -4 1 0 -7 6 -11 4 -13 -11
-8 -17 6 -17 6 -3 -5 20 -16 13 -38 -12 -38 -13 0 -17 -5 -12 -17 7 -17 6 -17
-11 0 -9 9 -23 17 -29 17 -7 0 -3 -8 8 -16 l20 -16 -20 3 c-11 1 -33 -3 -49
-10 -21 -8 -27 -16 -23 -31 3 -11 -2 -25 -12 -32 -14 -11 -14 -11 -4 3 17 21
5 32 -14 13 -13 -12 -13 -17 -1 -31 12 -15 11 -15 -9 -3 -12 8 -20 17 -17 21
11 18 212 187 218 183 3 -2 4 -1 2 2 -3 4 29 45 70 93 41 47 89 114 106 148
18 34 37 59 42 56 5 -3 6 -1 3 4 -4 6 3 37 15 69 24 69 38 311 20 363 l-11 30
42 -26 c23 -15 69 -48 102 -74z m-380 -708 c-3 -6 -11 -11 -17 -11 -6 0 -6 6
2 15 14 17 26 13 15 -4z m-239 -163 c4 -7 3 -10 -1 -5 -5 4 -18 -1 -29 -10
-21 -18 -21 -18 -2 5 22 26 23 26 32 10z m-86 -62 c0 -2 -8 -10 -17 -17 -16
-13 -17 -12 -4 4 13 16 21 21 21 13z m980 -376 c0 -5 -4 -10 -10 -10 -5 0 -10
5 -10 10 0 6 5 10 10 10 6 0 10 -4 10 -10z m227 -366 c-3 -3 -12 -4 -19 -1 -8
3 -5 6 6 6 11 1 17 -2 13 -5z m88 -3 c-3 -6 3 -14 12 -20 10 -6 14 -10 8 -10
-5 0 -18 6 -28 13 -14 11 -15 15 -5 19 19 8 20 8 13 -2z m52 -28 c-4 -3 -1
-13 6 -22 11 -14 10 -14 -5 -2 -16 12 -16 31 -1 31 4 0 3 -3 0 -7z m-223 -11
c3 -5 -1 -9 -9 -9 -8 0 -12 4 -9 9 3 4 7 8 9 8 2 0 6 -4 9 -8z m683 -138 c-3
-3 -12 -4 -19 -1 -8 3 -5 6 6 6 11 1 17 -2 13 -5z m250 -256 c-2 -24 -4 -7 -4
37 0 44 2 63 4 43 2 -21 2 -57 0 -80z"/>
<path d="M2181 3577 c-8 -10 -7 -14 2 -14 8 0 14 6 14 14 0 7 -1 13 -2 13 -2
0 -8 -6 -14 -13z"/>
<path d="M2055 3470 c-3 -5 -1 -10 4 -10 6 0 11 5 11 10 0 6 -2 10 -4 10 -3 0
-8 -4 -11 -10z"/>
<path d="M2350 3340 c0 -5 9 -10 21 -10 11 0 17 5 14 10 -3 6 -13 10 -21 10
-8 0 -14 -4 -14 -10z"/>
<path d="M2595 3160 c-3 -5 -2 -10 4 -10 5 0 13 5 16 10 3 6 2 10 -4 10 -5 0
-13 -4 -16 -10z"/>
<path d="M2705 3010 c-3 -5 -1 -10 4 -10 6 0 11 5 11 10 0 6 -2 10 -4 10 -3 0
-8 -4 -11 -10z"/>
<path d="M3595 2471 c-6 -10 21 -34 33 -29 4 1 0 11 -10 20 -9 10 -20 13 -23
9z"/>
</g>
</svg>
